<mxfile host="app.diagrams.net" modified="2023-08-17T07:26:28.383Z" agent="Mozilla/5.0 (Windows NT 10.0; Win64; x64) AppleWebKit/537.36 (KHTML, like Gecko) Chrome/115.0.0.0 Safari/537.36" etag="rGaLk6nL0l2St3JRDW2Z" version="21.6.8" type="github">
  <diagram name="Page-1" id="iB3ZfBsuQpXDWkrBQeDA">
    <mxGraphModel dx="1434" dy="782" grid="1" gridSize="10" guides="1" tooltips="1" connect="1" arrows="1" fold="1" page="1" pageScale="1" pageWidth="850" pageHeight="1100" math="0" shadow="0">
      <root>
        <mxCell id="0" />
        <mxCell id="1" parent="0" />
        <mxCell id="X9RoZUUg9bphY_anbRMy-11" style="edgeStyle=orthogonalEdgeStyle;rounded=0;orthogonalLoop=1;jettySize=auto;html=1;exitX=0.5;exitY=1;exitDx=0;exitDy=0;entryX=0.5;entryY=0;entryDx=0;entryDy=0;" edge="1" parent="1" source="X9RoZUUg9bphY_anbRMy-1" target="X9RoZUUg9bphY_anbRMy-2">
          <mxGeometry relative="1" as="geometry" />
        </mxCell>
        <mxCell id="X9RoZUUg9bphY_anbRMy-1" value="data gathering&amp;nbsp;" style="ellipse;whiteSpace=wrap;html=1;" vertex="1" parent="1">
          <mxGeometry x="290" y="80" width="120" height="80" as="geometry" />
        </mxCell>
        <mxCell id="X9RoZUUg9bphY_anbRMy-14" style="edgeStyle=orthogonalEdgeStyle;rounded=0;orthogonalLoop=1;jettySize=auto;html=1;exitX=0.5;exitY=1;exitDx=0;exitDy=0;entryX=0.5;entryY=0;entryDx=0;entryDy=0;" edge="1" parent="1" source="X9RoZUUg9bphY_anbRMy-2" target="X9RoZUUg9bphY_anbRMy-5">
          <mxGeometry relative="1" as="geometry" />
        </mxCell>
        <mxCell id="X9RoZUUg9bphY_anbRMy-2" value="lip area extraction and data preprocessing" style="rounded=0;whiteSpace=wrap;html=1;" vertex="1" parent="1">
          <mxGeometry x="290" y="210" width="120" height="60" as="geometry" />
        </mxCell>
        <mxCell id="X9RoZUUg9bphY_anbRMy-12" style="edgeStyle=orthogonalEdgeStyle;rounded=0;orthogonalLoop=1;jettySize=auto;html=1;exitX=1;exitY=0.5;exitDx=0;exitDy=0;" edge="1" parent="1" source="X9RoZUUg9bphY_anbRMy-3" target="X9RoZUUg9bphY_anbRMy-2">
          <mxGeometry relative="1" as="geometry" />
        </mxCell>
        <mxCell id="X9RoZUUg9bphY_anbRMy-3" value="cropping and zooming with frame alteration" style="rounded=1;whiteSpace=wrap;html=1;" vertex="1" parent="1">
          <mxGeometry x="90" y="210" width="120" height="60" as="geometry" />
        </mxCell>
        <mxCell id="X9RoZUUg9bphY_anbRMy-13" style="edgeStyle=orthogonalEdgeStyle;rounded=0;orthogonalLoop=1;jettySize=auto;html=1;exitX=0;exitY=0.5;exitDx=0;exitDy=0;" edge="1" parent="1" source="X9RoZUUg9bphY_anbRMy-4" target="X9RoZUUg9bphY_anbRMy-2">
          <mxGeometry relative="1" as="geometry" />
        </mxCell>
        <mxCell id="X9RoZUUg9bphY_anbRMy-4" value="sound source separation" style="rounded=1;whiteSpace=wrap;html=1;" vertex="1" parent="1">
          <mxGeometry x="500" y="210" width="120" height="60" as="geometry" />
        </mxCell>
        <mxCell id="X9RoZUUg9bphY_anbRMy-15" style="edgeStyle=orthogonalEdgeStyle;rounded=0;orthogonalLoop=1;jettySize=auto;html=1;exitX=0.5;exitY=1;exitDx=0;exitDy=0;" edge="1" parent="1" source="X9RoZUUg9bphY_anbRMy-5" target="X9RoZUUg9bphY_anbRMy-6">
          <mxGeometry relative="1" as="geometry" />
        </mxCell>
        <mxCell id="X9RoZUUg9bphY_anbRMy-5" value="model arch building using torch&amp;nbsp;" style="rounded=0;whiteSpace=wrap;html=1;" vertex="1" parent="1">
          <mxGeometry x="290" y="320" width="120" height="60" as="geometry" />
        </mxCell>
        <mxCell id="X9RoZUUg9bphY_anbRMy-16" style="edgeStyle=orthogonalEdgeStyle;rounded=0;orthogonalLoop=1;jettySize=auto;html=1;exitX=0.5;exitY=1;exitDx=0;exitDy=0;" edge="1" parent="1" source="X9RoZUUg9bphY_anbRMy-6" target="X9RoZUUg9bphY_anbRMy-7">
          <mxGeometry relative="1" as="geometry" />
        </mxCell>
        <mxCell id="X9RoZUUg9bphY_anbRMy-6" value="train and text data collation" style="rounded=0;whiteSpace=wrap;html=1;" vertex="1" parent="1">
          <mxGeometry x="290" y="430" width="120" height="60" as="geometry" />
        </mxCell>
        <mxCell id="X9RoZUUg9bphY_anbRMy-17" style="edgeStyle=orthogonalEdgeStyle;rounded=0;orthogonalLoop=1;jettySize=auto;html=1;exitX=0.5;exitY=1;exitDx=0;exitDy=0;entryX=0.5;entryY=0;entryDx=0;entryDy=0;" edge="1" parent="1" source="X9RoZUUg9bphY_anbRMy-7" target="X9RoZUUg9bphY_anbRMy-9">
          <mxGeometry relative="1" as="geometry" />
        </mxCell>
        <mxCell id="X9RoZUUg9bphY_anbRMy-7" value="mel spectography based on the lip movement" style="rounded=0;whiteSpace=wrap;html=1;" vertex="1" parent="1">
          <mxGeometry x="290" y="540" width="120" height="60" as="geometry" />
        </mxCell>
        <mxCell id="X9RoZUUg9bphY_anbRMy-18" style="edgeStyle=orthogonalEdgeStyle;rounded=0;orthogonalLoop=1;jettySize=auto;html=1;exitX=1;exitY=0.5;exitDx=0;exitDy=0;" edge="1" parent="1" source="X9RoZUUg9bphY_anbRMy-8" target="X9RoZUUg9bphY_anbRMy-7">
          <mxGeometry relative="1" as="geometry" />
        </mxCell>
        <mxCell id="X9RoZUUg9bphY_anbRMy-8" value="hyper grid creation" style="rounded=0;whiteSpace=wrap;html=1;" vertex="1" parent="1">
          <mxGeometry x="90" y="540" width="120" height="60" as="geometry" />
        </mxCell>
        <mxCell id="X9RoZUUg9bphY_anbRMy-19" style="edgeStyle=orthogonalEdgeStyle;rounded=0;orthogonalLoop=1;jettySize=auto;html=1;exitX=1;exitY=0.5;exitDx=0;exitDy=0;" edge="1" parent="1" source="X9RoZUUg9bphY_anbRMy-9" target="X9RoZUUg9bphY_anbRMy-10">
          <mxGeometry relative="1" as="geometry" />
        </mxCell>
        <mxCell id="X9RoZUUg9bphY_anbRMy-9" value="speech transformation" style="rounded=1;whiteSpace=wrap;html=1;" vertex="1" parent="1">
          <mxGeometry x="290" y="640" width="120" height="60" as="geometry" />
        </mxCell>
        <mxCell id="X9RoZUUg9bphY_anbRMy-10" value="visualizing&lt;br&gt;&amp;nbsp;and ploting with deployment" style="rhombus;whiteSpace=wrap;html=1;" vertex="1" parent="1">
          <mxGeometry x="490" y="615" width="100" height="110" as="geometry" />
        </mxCell>
      </root>
    </mxGraphModel>
  </diagram>
</mxfile>
